<?xml version="1.0" standalone="no"?>
<!DOCTYPE svg PUBLIC "-//W3C//DTD SVG 20010904//EN"
 "http://www.w3.org/TR/2001/REC-SVG-20010904/DTD/svg10.dtd">
<svg version="1.0" xmlns="http://www.w3.org/2000/svg"
 width="225.000000pt" height="225.000000pt" viewBox="0 0 225.000000 225.000000"
 preserveAspectRatio="xMidYMid meet">

<g transform="translate(0.000000,225.000000) scale(0.100000,-0.100000)"
fill="#000000" stroke="none">
<path d="M1037 1769 c-254 -33 -483 -239 -541 -489 -20 -83 -20 -227 0 -310
27 -116 79 -205 174 -300 132 -132 274 -192 455 -192 181 0 323 60 455 192
134 133 190 268 190 455 0 187 -56 322 -190 455 -96 97 -165 138 -280 169 -95
25 -177 31 -263 20z m253 -65 c299 -88 480 -380 426 -684 -22 -125 -72 -216
-171 -315 -124 -125 -252 -178 -430 -177 -364 1 -645 340 -581 700 46 258 249
455 511 496 52 8 189 -3 245 -20z"/>
<path d="M980 1666 c-121 -35 -225 -106 -295 -198 -58 -77 -67 -96 -94 -182
-15 -49 -21 -95 -21 -162 0 -240 137 -440 359 -525 l49 -18 25 37 c47 72 69
125 74 181 l4 56 -30 -60 c-16 -33 -48 -78 -70 -99 l-41 -40 -42 24 c-76 42
-95 60 -149 146 -30 46 -63 88 -75 94 -11 7 -29 25 -38 42 -51 85 45 193 137
154 78 -32 93 -122 32 -183 l-34 -34 46 -30 c26 -16 52 -29 59 -29 7 0 23 -12
35 -27 16 -20 20 -22 14 -8 -17 44 -16 56 2 88 11 18 23 51 27 73 11 57 43
108 85 135 33 21 78 85 67 96 -2 3 -18 -3 -35 -13 l-31 -18 -31 37 c-17 20
-37 37 -45 37 -8 0 -14 10 -14 23 0 12 -13 47 -30 77 -16 30 -33 61 -36 67 -9
18 25 71 68 106 46 37 111 46 156 23 37 -19 67 -72 76 -138 4 -26 16 -58 27
-73 27 -34 98 -68 184 -90 39 -9 82 -24 96 -32 27 -16 59 -61 59 -83 0 -6 11
-35 25 -64 13 -28 25 -65 26 -81 3 -52 -1 -86 -9 -81 -4 2 -6 -11 -4 -30 2
-19 8 -34 12 -34 10 0 43 78 64 149 25 86 21 223 -9 318 -51 162 -180 296
-340 355 -74 27 -264 35 -335 14z"/>
<path d="M681 1054 c-24 -31 -25 -35 -10 -67 31 -67 129 -46 129 28 0 64 -79
90 -119 39z m91 -1 c38 -34 15 -93 -36 -93 -39 0 -58 19 -58 57 0 47 57 70 94
36z"/>
<path d="M720 1015 c0 -8 7 -15 15 -15 8 0 15 7 15 15 0 8 -7 15 -15 15 -8 0
-15 -7 -15 -15z"/>
<path d="M1231 929 c13 -8 97 -13 88 -5 -2 2 -26 6 -53 9 -30 3 -43 1 -35 -4z"/>
<path d="M1119 913 c-13 -16 -12 -17 4 -4 9 7 17 15 17 17 0 8 -8 3 -21 -13z"/>
<path d="M1044 881 c21 -23 26 -26 26 -11 0 5 -10 15 -22 21 -23 12 -23 12 -4
-10z"/>
<path d="M1170 881 c0 -6 4 -13 10 -16 6 -3 7 1 4 9 -7 18 -14 21 -14 7z"/>
<path d="M1432 859 c1 -29 -48 -146 -71 -173 -9 -11 -11 -16 -4 -13 8 5 13 -3
15 -23 l3 -31 46 30 c45 28 47 32 54 88 6 51 3 64 -18 102 -21 36 -25 39 -25
20z"/>
<path d="M1172 820 c0 -14 2 -19 5 -12 2 6 2 18 0 25 -3 6 -5 1 -5 -13z"/>
</g>
</svg>
